<mxfile host="app.diagrams.net" modified="2021-02-16T02:01:49.600Z" agent="5.0 (Macintosh; Intel Mac OS X 10_15_6) AppleWebKit/605.1.15 (KHTML, like Gecko) Version/14.0.2 Safari/605.1.15" etag="gJrN_vh9wnwOoBjWi_Vz" version="14.3.2" type="github">
  <diagram id="3i-3SIlNTPq4TQIizfsc" name="Page-1">
    <mxGraphModel dx="2894" dy="774" grid="1" gridSize="10" guides="1" tooltips="1" connect="1" arrows="1" fold="1" page="1" pageScale="1" pageWidth="1200" pageHeight="1920" math="0" shadow="0">
      <root>
        <mxCell id="0" />
        <mxCell id="1" parent="0" />
        <mxCell id="3DuDrnzEsan1U2cVSjnY-1" value="PRODUCT" style="whiteSpace=wrap;html=1;align=center;" vertex="1" parent="1">
          <mxGeometry x="-170" y="295" width="200" height="40" as="geometry" />
        </mxCell>
        <mxCell id="3DuDrnzEsan1U2cVSjnY-2" value="SUPPLIER" style="whiteSpace=wrap;html=1;align=center;" vertex="1" parent="1">
          <mxGeometry x="460" y="80" width="200" height="40" as="geometry" />
        </mxCell>
        <mxCell id="3DuDrnzEsan1U2cVSjnY-3" value="USER" style="whiteSpace=wrap;html=1;align=center;" vertex="1" parent="1">
          <mxGeometry x="-97.5" y="875" width="200" height="40" as="geometry" />
        </mxCell>
        <mxCell id="3DuDrnzEsan1U2cVSjnY-4" value="ORDER" style="whiteSpace=wrap;html=1;align=center;" vertex="1" parent="1">
          <mxGeometry x="1130" y="270" width="200" height="40" as="geometry" />
        </mxCell>
        <mxCell id="3DuDrnzEsan1U2cVSjnY-5" value="PAYMENT" style="whiteSpace=wrap;html=1;align=center;" vertex="1" parent="1">
          <mxGeometry x="470" y="840" width="200" height="40" as="geometry" />
        </mxCell>
        <mxCell id="3DuDrnzEsan1U2cVSjnY-6" value="SHIPPER" style="whiteSpace=wrap;html=1;align=center;" vertex="1" parent="1">
          <mxGeometry x="1140" y="665" width="200" height="40" as="geometry" />
        </mxCell>
        <mxCell id="3DuDrnzEsan1U2cVSjnY-7" value="&lt;u&gt;Product_id&lt;/u&gt;" style="ellipse;whiteSpace=wrap;html=1;align=center;" vertex="1" parent="1">
          <mxGeometry x="-100" y="205" width="70" height="30" as="geometry" />
        </mxCell>
        <mxCell id="3DuDrnzEsan1U2cVSjnY-8" value="Name" style="ellipse;whiteSpace=wrap;html=1;align=center;" vertex="1" parent="1">
          <mxGeometry x="-180" y="225" width="70" height="30" as="geometry" />
        </mxCell>
        <mxCell id="3DuDrnzEsan1U2cVSjnY-9" value="Size" style="ellipse;whiteSpace=wrap;html=1;align=center;" vertex="1" parent="1">
          <mxGeometry x="-250" y="255" width="70" height="30" as="geometry" />
        </mxCell>
        <mxCell id="3DuDrnzEsan1U2cVSjnY-11" value="Units_stocked" style="ellipse;whiteSpace=wrap;html=1;align=center;" vertex="1" parent="1">
          <mxGeometry x="45" y="355" width="90" height="30" as="geometry" />
        </mxCell>
        <mxCell id="3DuDrnzEsan1U2cVSjnY-12" value="Price" style="ellipse;whiteSpace=wrap;html=1;align=center;" vertex="1" parent="1">
          <mxGeometry x="-40" y="365" width="70" height="30" as="geometry" />
        </mxCell>
        <mxCell id="3DuDrnzEsan1U2cVSjnY-13" value="Description" style="ellipse;whiteSpace=wrap;html=1;align=center;" vertex="1" parent="1">
          <mxGeometry x="-165" y="365" width="70" height="30" as="geometry" />
        </mxCell>
        <mxCell id="3DuDrnzEsan1U2cVSjnY-14" value="Category" style="ellipse;whiteSpace=wrap;html=1;align=center;" vertex="1" parent="1">
          <mxGeometry x="-250" y="355" width="70" height="30" as="geometry" />
        </mxCell>
        <mxCell id="3DuDrnzEsan1U2cVSjnY-15" value="Dimensions" style="ellipse;whiteSpace=wrap;html=1;align=center;" vertex="1" parent="1">
          <mxGeometry x="-100" y="415" width="80" height="30" as="geometry" />
        </mxCell>
        <mxCell id="3DuDrnzEsan1U2cVSjnY-27" value="" style="endArrow=none;html=1;rounded=0;entryX=0.5;entryY=1;entryDx=0;entryDy=0;" edge="1" parent="1" target="3DuDrnzEsan1U2cVSjnY-7">
          <mxGeometry relative="1" as="geometry">
            <mxPoint x="-65" y="293" as="sourcePoint" />
            <mxPoint x="310" y="425" as="targetPoint" />
          </mxGeometry>
        </mxCell>
        <mxCell id="3DuDrnzEsan1U2cVSjnY-28" value="" style="endArrow=none;html=1;rounded=0;entryX=0.5;entryY=1;entryDx=0;entryDy=0;" edge="1" parent="1" target="3DuDrnzEsan1U2cVSjnY-8">
          <mxGeometry relative="1" as="geometry">
            <mxPoint x="-100" y="293" as="sourcePoint" />
            <mxPoint x="-134" y="265" as="targetPoint" />
          </mxGeometry>
        </mxCell>
        <mxCell id="3DuDrnzEsan1U2cVSjnY-29" value="" style="endArrow=none;html=1;rounded=0;exitX=0.5;exitY=0;exitDx=0;exitDy=0;" edge="1" parent="1" source="3DuDrnzEsan1U2cVSjnY-12">
          <mxGeometry relative="1" as="geometry">
            <mxPoint x="-43" y="365" as="sourcePoint" />
            <mxPoint x="-43" y="337" as="targetPoint" />
          </mxGeometry>
        </mxCell>
        <mxCell id="3DuDrnzEsan1U2cVSjnY-30" value="" style="endArrow=none;html=1;rounded=0;entryX=0;entryY=1;entryDx=0;entryDy=0;exitX=0.945;exitY=-0.05;exitDx=0;exitDy=0;exitPerimeter=0;" edge="1" parent="1" target="3DuDrnzEsan1U2cVSjnY-1">
          <mxGeometry relative="1" as="geometry">
            <mxPoint x="-186" y="363" as="sourcePoint" />
            <mxPoint x="-150" y="335" as="targetPoint" />
          </mxGeometry>
        </mxCell>
        <mxCell id="3DuDrnzEsan1U2cVSjnY-31" value="" style="endArrow=none;html=1;rounded=0;entryX=0.5;entryY=1;entryDx=0;entryDy=0;exitX=0.945;exitY=-0.05;exitDx=0;exitDy=0;exitPerimeter=0;" edge="1" parent="1">
          <mxGeometry relative="1" as="geometry">
            <mxPoint x="-116" y="363" as="sourcePoint" />
            <mxPoint x="-80" y="335" as="targetPoint" />
          </mxGeometry>
        </mxCell>
        <mxCell id="3DuDrnzEsan1U2cVSjnY-32" value="" style="endArrow=none;html=1;rounded=0;entryX=0.5;entryY=1;entryDx=0;entryDy=0;exitX=0.75;exitY=0;exitDx=0;exitDy=0;" edge="1" parent="1" source="3DuDrnzEsan1U2cVSjnY-1" target="3DuDrnzEsan1U2cVSjnY-47">
          <mxGeometry relative="1" as="geometry">
            <mxPoint x="-65" y="293" as="sourcePoint" />
            <mxPoint x="-25" y="265" as="targetPoint" />
          </mxGeometry>
        </mxCell>
        <mxCell id="3DuDrnzEsan1U2cVSjnY-33" value="" style="endArrow=none;html=1;rounded=0;entryX=0;entryY=0;entryDx=0;entryDy=0;exitX=1;exitY=1;exitDx=0;exitDy=0;" edge="1" parent="1" source="3DuDrnzEsan1U2cVSjnY-1" target="3DuDrnzEsan1U2cVSjnY-11">
          <mxGeometry relative="1" as="geometry">
            <mxPoint x="79" y="353" as="sourcePoint" />
            <mxPoint x="41.960000000000036" y="368" as="targetPoint" />
          </mxGeometry>
        </mxCell>
        <mxCell id="3DuDrnzEsan1U2cVSjnY-34" value="" style="endArrow=none;html=1;rounded=0;entryX=1;entryY=1;entryDx=0;entryDy=0;exitX=0;exitY=0;exitDx=0;exitDy=0;" edge="1" parent="1" source="3DuDrnzEsan1U2cVSjnY-1" target="3DuDrnzEsan1U2cVSjnY-9">
          <mxGeometry relative="1" as="geometry">
            <mxPoint x="-160" y="293" as="sourcePoint" />
            <mxPoint x="-185" y="265" as="targetPoint" />
          </mxGeometry>
        </mxCell>
        <mxCell id="3DuDrnzEsan1U2cVSjnY-36" value="" style="endArrow=none;html=1;rounded=0;exitX=0.54;exitY=1.05;exitDx=0;exitDy=0;exitPerimeter=0;" edge="1" parent="1" source="3DuDrnzEsan1U2cVSjnY-1" target="3DuDrnzEsan1U2cVSjnY-15">
          <mxGeometry relative="1" as="geometry">
            <mxPoint x="-40" y="495" as="sourcePoint" />
            <mxPoint x="120" y="495" as="targetPoint" />
          </mxGeometry>
        </mxCell>
        <mxCell id="3DuDrnzEsan1U2cVSjnY-37" value="Height" style="ellipse;whiteSpace=wrap;html=1;align=center;dashed=1;" vertex="1" parent="1">
          <mxGeometry x="-40" y="485" width="60" height="30" as="geometry" />
        </mxCell>
        <mxCell id="3DuDrnzEsan1U2cVSjnY-39" value="Width" style="ellipse;whiteSpace=wrap;html=1;align=center;dashed=1;" vertex="1" parent="1">
          <mxGeometry x="-140" y="485" width="60" height="30" as="geometry" />
        </mxCell>
        <mxCell id="3DuDrnzEsan1U2cVSjnY-40" value="Weight" style="ellipse;whiteSpace=wrap;html=1;align=center;" vertex="1" parent="1">
          <mxGeometry x="25" y="455" width="60" height="30" as="geometry" />
        </mxCell>
        <mxCell id="3DuDrnzEsan1U2cVSjnY-41" value="" style="endArrow=none;html=1;rounded=0;entryX=1;entryY=1;entryDx=0;entryDy=0;exitX=0;exitY=0;exitDx=0;exitDy=0;" edge="1" parent="1" source="3DuDrnzEsan1U2cVSjnY-40" target="3DuDrnzEsan1U2cVSjnY-15">
          <mxGeometry relative="1" as="geometry">
            <mxPoint x="10" y="535" as="sourcePoint" />
            <mxPoint x="170" y="535" as="targetPoint" />
          </mxGeometry>
        </mxCell>
        <mxCell id="3DuDrnzEsan1U2cVSjnY-42" value="" style="endArrow=none;html=1;rounded=0;entryX=0.7;entryY=1.033;entryDx=0;entryDy=0;exitX=0.5;exitY=0;exitDx=0;exitDy=0;entryPerimeter=0;" edge="1" parent="1" source="3DuDrnzEsan1U2cVSjnY-37" target="3DuDrnzEsan1U2cVSjnY-15">
          <mxGeometry relative="1" as="geometry">
            <mxPoint x="-70" y="495" as="sourcePoint" />
            <mxPoint x="200" y="565" as="targetPoint" />
          </mxGeometry>
        </mxCell>
        <mxCell id="3DuDrnzEsan1U2cVSjnY-43" value="" style="endArrow=none;html=1;rounded=0;exitX=0.733;exitY=0.033;exitDx=0;exitDy=0;entryX=0.388;entryY=1.067;entryDx=0;entryDy=0;entryPerimeter=0;exitPerimeter=0;" edge="1" parent="1" source="3DuDrnzEsan1U2cVSjnY-39" target="3DuDrnzEsan1U2cVSjnY-15">
          <mxGeometry relative="1" as="geometry">
            <mxPoint x="170" y="445" as="sourcePoint" />
            <mxPoint x="330" y="445" as="targetPoint" />
          </mxGeometry>
        </mxCell>
        <mxCell id="3DuDrnzEsan1U2cVSjnY-44" value="Length" style="ellipse;whiteSpace=wrap;html=1;align=center;dashed=1;" vertex="1" parent="1">
          <mxGeometry x="-225" y="455" width="60" height="30" as="geometry" />
        </mxCell>
        <mxCell id="3DuDrnzEsan1U2cVSjnY-45" value="" style="endArrow=none;html=1;rounded=0;exitX=1;exitY=0.5;exitDx=0;exitDy=0;entryX=0;entryY=1;entryDx=0;entryDy=0;" edge="1" parent="1" source="3DuDrnzEsan1U2cVSjnY-44" target="3DuDrnzEsan1U2cVSjnY-15">
          <mxGeometry relative="1" as="geometry">
            <mxPoint x="150" y="425" as="sourcePoint" />
            <mxPoint x="310" y="425" as="targetPoint" />
          </mxGeometry>
        </mxCell>
        <mxCell id="3DuDrnzEsan1U2cVSjnY-47" value="Color" style="ellipse;shape=doubleEllipse;margin=3;whiteSpace=wrap;html=1;align=center;" vertex="1" parent="1">
          <mxGeometry x="-20" y="205" width="65" height="30" as="geometry" />
        </mxCell>
        <mxCell id="3DuDrnzEsan1U2cVSjnY-48" value="Average_rating" style="ellipse;whiteSpace=wrap;html=1;align=center;" vertex="1" parent="1">
          <mxGeometry x="85" y="315" width="90" height="30" as="geometry" />
        </mxCell>
        <mxCell id="3DuDrnzEsan1U2cVSjnY-49" value="" style="endArrow=none;html=1;rounded=0;entryX=0;entryY=0.5;entryDx=0;entryDy=0;exitX=1;exitY=0.5;exitDx=0;exitDy=0;" edge="1" parent="1" source="3DuDrnzEsan1U2cVSjnY-1" target="3DuDrnzEsan1U2cVSjnY-48">
          <mxGeometry relative="1" as="geometry">
            <mxPoint x="205" y="385" as="sourcePoint" />
            <mxPoint x="148.18019484660545" y="279.3933982822018" as="targetPoint" />
          </mxGeometry>
        </mxCell>
        <mxCell id="3DuDrnzEsan1U2cVSjnY-50" value="Supplier_id" style="ellipse;whiteSpace=wrap;html=1;align=center;fontStyle=4;" vertex="1" parent="1">
          <mxGeometry x="540" y="180" width="80" height="30" as="geometry" />
        </mxCell>
        <mxCell id="3DuDrnzEsan1U2cVSjnY-51" value="Name" style="ellipse;whiteSpace=wrap;html=1;align=center;" vertex="1" parent="1">
          <mxGeometry x="460" y="180" width="70" height="30" as="geometry" />
        </mxCell>
        <mxCell id="3DuDrnzEsan1U2cVSjnY-52" value="Website" style="ellipse;whiteSpace=wrap;html=1;align=center;" vertex="1" parent="1">
          <mxGeometry x="630" y="180" width="80" height="30" as="geometry" />
        </mxCell>
        <mxCell id="3DuDrnzEsan1U2cVSjnY-53" value="" style="endArrow=none;html=1;rounded=0;entryX=0.32;entryY=1.075;entryDx=0;entryDy=0;entryPerimeter=0;exitX=0.5;exitY=0;exitDx=0;exitDy=0;" edge="1" parent="1" source="3DuDrnzEsan1U2cVSjnY-51" target="3DuDrnzEsan1U2cVSjnY-2">
          <mxGeometry relative="1" as="geometry">
            <mxPoint x="420" y="319" as="sourcePoint" />
            <mxPoint x="580" y="319" as="targetPoint" />
          </mxGeometry>
        </mxCell>
        <mxCell id="3DuDrnzEsan1U2cVSjnY-54" value="" style="endArrow=none;html=1;rounded=0;entryX=0.585;entryY=1.05;entryDx=0;entryDy=0;exitX=0.5;exitY=0;exitDx=0;exitDy=0;entryPerimeter=0;" edge="1" parent="1" source="3DuDrnzEsan1U2cVSjnY-50" target="3DuDrnzEsan1U2cVSjnY-2">
          <mxGeometry relative="1" as="geometry">
            <mxPoint x="430" y="329" as="sourcePoint" />
            <mxPoint x="590" y="329" as="targetPoint" />
          </mxGeometry>
        </mxCell>
        <mxCell id="3DuDrnzEsan1U2cVSjnY-55" value="" style="endArrow=none;html=1;rounded=0;exitX=0.5;exitY=0;exitDx=0;exitDy=0;entryX=0.75;entryY=1;entryDx=0;entryDy=0;" edge="1" parent="1" source="3DuDrnzEsan1U2cVSjnY-52" target="3DuDrnzEsan1U2cVSjnY-2">
          <mxGeometry relative="1" as="geometry">
            <mxPoint x="440" y="339" as="sourcePoint" />
            <mxPoint x="640" y="121" as="targetPoint" />
          </mxGeometry>
        </mxCell>
        <mxCell id="3DuDrnzEsan1U2cVSjnY-56" value="SUPPLY" style="shape=rhombus;double=1;perimeter=rhombusPerimeter;whiteSpace=wrap;html=1;align=center;" vertex="1" parent="1">
          <mxGeometry x="220" y="180" width="80" height="45" as="geometry" />
        </mxCell>
        <mxCell id="3DuDrnzEsan1U2cVSjnY-62" value="" style="endArrow=none;html=1;rounded=0;entryX=0;entryY=1;entryDx=0;entryDy=0;exitX=1;exitY=0;exitDx=0;exitDy=0;" edge="1" parent="1" source="3DuDrnzEsan1U2cVSjnY-56" target="3DuDrnzEsan1U2cVSjnY-2">
          <mxGeometry relative="1" as="geometry">
            <mxPoint x="460" y="320" as="sourcePoint" />
            <mxPoint x="620" y="320" as="targetPoint" />
            <Array as="points" />
          </mxGeometry>
        </mxCell>
        <mxCell id="3DuDrnzEsan1U2cVSjnY-63" value="1" style="resizable=0;html=1;align=right;verticalAlign=bottom;" connectable="0" vertex="1" parent="3DuDrnzEsan1U2cVSjnY-62">
          <mxGeometry x="1" relative="1" as="geometry" />
        </mxCell>
        <mxCell id="3DuDrnzEsan1U2cVSjnY-64" value="" style="shape=link;html=1;rounded=0;entryX=0;entryY=1;entryDx=0;entryDy=0;exitX=1;exitY=0;exitDx=0;exitDy=0;" edge="1" parent="1" source="3DuDrnzEsan1U2cVSjnY-1" target="3DuDrnzEsan1U2cVSjnY-56">
          <mxGeometry relative="1" as="geometry">
            <mxPoint x="15" y="275" as="sourcePoint" />
            <mxPoint x="365" y="335" as="targetPoint" />
            <Array as="points" />
          </mxGeometry>
        </mxCell>
        <mxCell id="3DuDrnzEsan1U2cVSjnY-65" value="M" style="resizable=0;html=1;align=left;verticalAlign=bottom;" connectable="0" vertex="1" parent="3DuDrnzEsan1U2cVSjnY-64">
          <mxGeometry x="-1" relative="1" as="geometry" />
        </mxCell>
        <mxCell id="3DuDrnzEsan1U2cVSjnY-66" value="" style="resizable=0;html=1;align=right;verticalAlign=bottom;" connectable="0" vertex="1" parent="3DuDrnzEsan1U2cVSjnY-64">
          <mxGeometry x="1" relative="1" as="geometry" />
        </mxCell>
        <mxCell id="3DuDrnzEsan1U2cVSjnY-68" value="Attribute" style="ellipse;whiteSpace=wrap;html=1;align=center;" vertex="1" parent="1">
          <mxGeometry x="490" y="660" width="70" height="30" as="geometry" />
        </mxCell>
        <mxCell id="3DuDrnzEsan1U2cVSjnY-69" value="Attribute" style="ellipse;whiteSpace=wrap;html=1;align=center;" vertex="1" parent="1">
          <mxGeometry x="500" y="670" width="70" height="30" as="geometry" />
        </mxCell>
        <mxCell id="3DuDrnzEsan1U2cVSjnY-70" value="Attribute" style="ellipse;whiteSpace=wrap;html=1;align=center;" vertex="1" parent="1">
          <mxGeometry x="510" y="680" width="70" height="30" as="geometry" />
        </mxCell>
        <mxCell id="3DuDrnzEsan1U2cVSjnY-71" value="Password" style="ellipse;whiteSpace=wrap;html=1;align=center;" vertex="1" parent="1">
          <mxGeometry x="117.5" y="825" width="70" height="30" as="geometry" />
        </mxCell>
        <mxCell id="3DuDrnzEsan1U2cVSjnY-72" value="Username" style="ellipse;whiteSpace=wrap;html=1;align=center;" vertex="1" parent="1">
          <mxGeometry x="150" y="970" width="70" height="30" as="geometry" />
        </mxCell>
        <mxCell id="3DuDrnzEsan1U2cVSjnY-73" value="Email" style="ellipse;whiteSpace=wrap;html=1;align=center;" vertex="1" parent="1">
          <mxGeometry x="-97.5" y="975" width="70" height="30" as="geometry" />
        </mxCell>
        <mxCell id="3DuDrnzEsan1U2cVSjnY-74" value="Phone" style="ellipse;whiteSpace=wrap;html=1;align=center;" vertex="1" parent="1">
          <mxGeometry x="22.5" y="975" width="70" height="30" as="geometry" />
        </mxCell>
        <mxCell id="3DuDrnzEsan1U2cVSjnY-75" value="Address" style="ellipse;whiteSpace=wrap;html=1;align=center;" vertex="1" parent="1">
          <mxGeometry x="-187.5" y="825" width="70" height="30" as="geometry" />
        </mxCell>
        <mxCell id="3DuDrnzEsan1U2cVSjnY-76" value="Name" style="ellipse;whiteSpace=wrap;html=1;align=center;" vertex="1" parent="1">
          <mxGeometry x="-210" y="970" width="70" height="30" as="geometry" />
        </mxCell>
        <mxCell id="3DuDrnzEsan1U2cVSjnY-77" value="&lt;u&gt;User_id&lt;/u&gt;" style="ellipse;whiteSpace=wrap;html=1;align=center;" vertex="1" parent="1">
          <mxGeometry x="-32.5" y="805" width="70" height="30" as="geometry" />
        </mxCell>
        <mxCell id="3DuDrnzEsan1U2cVSjnY-78" value="Country" style="ellipse;whiteSpace=wrap;html=1;align=center;dashed=1;" vertex="1" parent="1">
          <mxGeometry x="-277.5" y="885" width="70" height="30" as="geometry" />
        </mxCell>
        <mxCell id="3DuDrnzEsan1U2cVSjnY-79" value="Zip" style="ellipse;whiteSpace=wrap;html=1;align=center;dashed=1;" vertex="1" parent="1">
          <mxGeometry x="-302.5" y="755" width="70" height="30" as="geometry" />
        </mxCell>
        <mxCell id="3DuDrnzEsan1U2cVSjnY-80" value="State" style="ellipse;whiteSpace=wrap;html=1;align=center;dashed=1;" vertex="1" parent="1">
          <mxGeometry x="-327.5" y="815" width="70" height="30" as="geometry" />
        </mxCell>
        <mxCell id="3DuDrnzEsan1U2cVSjnY-81" value="City" style="ellipse;whiteSpace=wrap;html=1;align=center;dashed=1;" vertex="1" parent="1">
          <mxGeometry x="-207.5" y="715" width="70" height="30" as="geometry" />
        </mxCell>
        <mxCell id="3DuDrnzEsan1U2cVSjnY-82" value="Street_address" style="ellipse;whiteSpace=wrap;html=1;align=center;dashed=1;" vertex="1" parent="1">
          <mxGeometry x="-122.5" y="745" width="110" height="30" as="geometry" />
        </mxCell>
        <mxCell id="3DuDrnzEsan1U2cVSjnY-85" value="" style="endArrow=none;html=1;rounded=0;exitX=0.743;exitY=0;exitDx=0;exitDy=0;exitPerimeter=0;entryX=0.345;entryY=1.033;entryDx=0;entryDy=0;entryPerimeter=0;" edge="1" parent="1" source="3DuDrnzEsan1U2cVSjnY-75" target="3DuDrnzEsan1U2cVSjnY-82">
          <mxGeometry relative="1" as="geometry">
            <mxPoint x="2.5" y="785" as="sourcePoint" />
            <mxPoint x="162.5" y="785" as="targetPoint" />
          </mxGeometry>
        </mxCell>
        <mxCell id="3DuDrnzEsan1U2cVSjnY-86" value="" style="endArrow=none;html=1;rounded=0;entryX=0.5;entryY=1;entryDx=0;entryDy=0;" edge="1" parent="1" target="3DuDrnzEsan1U2cVSjnY-81">
          <mxGeometry relative="1" as="geometry">
            <mxPoint x="-157.5" y="824" as="sourcePoint" />
            <mxPoint x="-156.56000000000017" y="775" as="targetPoint" />
          </mxGeometry>
        </mxCell>
        <mxCell id="3DuDrnzEsan1U2cVSjnY-87" value="" style="endArrow=none;html=1;rounded=0;exitX=0;exitY=0;exitDx=0;exitDy=0;entryX=1;entryY=1;entryDx=0;entryDy=0;" edge="1" parent="1" source="3DuDrnzEsan1U2cVSjnY-75" target="3DuDrnzEsan1U2cVSjnY-79">
          <mxGeometry relative="1" as="geometry">
            <mxPoint x="-115.49000000000001" y="845" as="sourcePoint" />
            <mxPoint x="-64.55000000000018" y="795.99" as="targetPoint" />
          </mxGeometry>
        </mxCell>
        <mxCell id="3DuDrnzEsan1U2cVSjnY-88" value="" style="endArrow=none;html=1;rounded=0;exitX=0;exitY=0.5;exitDx=0;exitDy=0;entryX=1;entryY=0.5;entryDx=0;entryDy=0;" edge="1" parent="1" source="3DuDrnzEsan1U2cVSjnY-75" target="3DuDrnzEsan1U2cVSjnY-80">
          <mxGeometry relative="1" as="geometry">
            <mxPoint x="-105.49000000000001" y="855" as="sourcePoint" />
            <mxPoint x="-54.55000000000018" y="805.99" as="targetPoint" />
          </mxGeometry>
        </mxCell>
        <mxCell id="3DuDrnzEsan1U2cVSjnY-89" value="" style="endArrow=none;html=1;rounded=0;exitX=1;exitY=0;exitDx=0;exitDy=0;entryX=0;entryY=1;entryDx=0;entryDy=0;" edge="1" parent="1" source="3DuDrnzEsan1U2cVSjnY-78" target="3DuDrnzEsan1U2cVSjnY-75">
          <mxGeometry relative="1" as="geometry">
            <mxPoint x="-95.49000000000001" y="865" as="sourcePoint" />
            <mxPoint x="-44.55000000000018" y="815.99" as="targetPoint" />
          </mxGeometry>
        </mxCell>
        <mxCell id="3DuDrnzEsan1U2cVSjnY-91" value="" style="endArrow=none;html=1;rounded=0;exitX=0.5;exitY=1;exitDx=0;exitDy=0;entryX=0.5;entryY=0;entryDx=0;entryDy=0;" edge="1" parent="1" source="3DuDrnzEsan1U2cVSjnY-77" target="3DuDrnzEsan1U2cVSjnY-3">
          <mxGeometry relative="1" as="geometry">
            <mxPoint x="2.5" y="785" as="sourcePoint" />
            <mxPoint x="162.5" y="785" as="targetPoint" />
          </mxGeometry>
        </mxCell>
        <mxCell id="3DuDrnzEsan1U2cVSjnY-92" value="" style="endArrow=none;html=1;rounded=0;exitX=0;exitY=1;exitDx=0;exitDy=0;entryX=0.75;entryY=0;entryDx=0;entryDy=0;" edge="1" parent="1" source="3DuDrnzEsan1U2cVSjnY-71" target="3DuDrnzEsan1U2cVSjnY-3">
          <mxGeometry relative="1" as="geometry">
            <mxPoint x="12.5" y="845" as="sourcePoint" />
            <mxPoint x="12.5" y="885" as="targetPoint" />
          </mxGeometry>
        </mxCell>
        <mxCell id="3DuDrnzEsan1U2cVSjnY-93" value="" style="endArrow=none;html=1;rounded=0;exitX=0.739;exitY=0.01;exitDx=0;exitDy=0;entryX=0.139;entryY=0.989;entryDx=0;entryDy=0;entryPerimeter=0;exitPerimeter=0;" edge="1" parent="1" source="3DuDrnzEsan1U2cVSjnY-76" target="3DuDrnzEsan1U2cVSjnY-3">
          <mxGeometry relative="1" as="geometry">
            <mxPoint x="22.5" y="855" as="sourcePoint" />
            <mxPoint x="22.5" y="895" as="targetPoint" />
          </mxGeometry>
        </mxCell>
        <mxCell id="3DuDrnzEsan1U2cVSjnY-94" value="" style="endArrow=none;html=1;rounded=0;exitX=0.62;exitY=0.975;exitDx=0;exitDy=0;entryX=0.5;entryY=0;entryDx=0;entryDy=0;exitPerimeter=0;" edge="1" parent="1" source="3DuDrnzEsan1U2cVSjnY-3" target="3DuDrnzEsan1U2cVSjnY-74">
          <mxGeometry relative="1" as="geometry">
            <mxPoint x="32.5" y="865" as="sourcePoint" />
            <mxPoint x="32.5" y="905" as="targetPoint" />
          </mxGeometry>
        </mxCell>
        <mxCell id="3DuDrnzEsan1U2cVSjnY-95" value="" style="endArrow=none;html=1;rounded=0;exitX=0.38;exitY=1;exitDx=0;exitDy=0;entryX=0.6;entryY=0.067;entryDx=0;entryDy=0;entryPerimeter=0;exitPerimeter=0;" edge="1" parent="1" source="3DuDrnzEsan1U2cVSjnY-3" target="3DuDrnzEsan1U2cVSjnY-73">
          <mxGeometry relative="1" as="geometry">
            <mxPoint x="42.5" y="875" as="sourcePoint" />
            <mxPoint x="42.5" y="915" as="targetPoint" />
          </mxGeometry>
        </mxCell>
        <mxCell id="3DuDrnzEsan1U2cVSjnY-96" value="" style="endArrow=none;html=1;rounded=0;exitX=0.86;exitY=1.025;exitDx=0;exitDy=0;entryX=0;entryY=0;entryDx=0;entryDy=0;exitPerimeter=0;" edge="1" parent="1" source="3DuDrnzEsan1U2cVSjnY-3" target="3DuDrnzEsan1U2cVSjnY-72">
          <mxGeometry relative="1" as="geometry">
            <mxPoint x="52.5" y="885" as="sourcePoint" />
            <mxPoint x="52.5" y="925" as="targetPoint" />
          </mxGeometry>
        </mxCell>
        <mxCell id="3DuDrnzEsan1U2cVSjnY-97" value="" style="endArrow=none;html=1;rounded=0;exitX=0.175;exitY=0.025;exitDx=0;exitDy=0;entryX=1;entryY=1;entryDx=0;entryDy=0;exitPerimeter=0;" edge="1" parent="1" source="3DuDrnzEsan1U2cVSjnY-3" target="3DuDrnzEsan1U2cVSjnY-75">
          <mxGeometry relative="1" as="geometry">
            <mxPoint x="62.5" y="895" as="sourcePoint" />
            <mxPoint x="62.5" y="935" as="targetPoint" />
          </mxGeometry>
        </mxCell>
        <mxCell id="3DuDrnzEsan1U2cVSjnY-98" value="Last" style="ellipse;whiteSpace=wrap;html=1;align=center;dashed=1;" vertex="1" parent="1">
          <mxGeometry x="-167.5" y="1040" width="70" height="30" as="geometry" />
        </mxCell>
        <mxCell id="3DuDrnzEsan1U2cVSjnY-100" value="Middle" style="ellipse;whiteSpace=wrap;html=1;align=center;dashed=1;" vertex="1" parent="1">
          <mxGeometry x="-277.5" y="1030" width="70" height="30" as="geometry" />
        </mxCell>
        <mxCell id="3DuDrnzEsan1U2cVSjnY-101" value="First" style="ellipse;whiteSpace=wrap;html=1;align=center;dashed=1;" vertex="1" parent="1">
          <mxGeometry x="-340" y="970" width="70" height="30" as="geometry" />
        </mxCell>
        <mxCell id="3DuDrnzEsan1U2cVSjnY-102" value="" style="endArrow=none;html=1;rounded=0;exitX=1;exitY=0.5;exitDx=0;exitDy=0;entryX=0;entryY=0.5;entryDx=0;entryDy=0;" edge="1" parent="1" source="3DuDrnzEsan1U2cVSjnY-101" target="3DuDrnzEsan1U2cVSjnY-76">
          <mxGeometry relative="1" as="geometry">
            <mxPoint x="310" y="880" as="sourcePoint" />
            <mxPoint x="470" y="880" as="targetPoint" />
          </mxGeometry>
        </mxCell>
        <mxCell id="3DuDrnzEsan1U2cVSjnY-103" value="" style="endArrow=none;html=1;rounded=0;exitX=1;exitY=0;exitDx=0;exitDy=0;entryX=0.331;entryY=1.057;entryDx=0;entryDy=0;entryPerimeter=0;" edge="1" parent="1" source="3DuDrnzEsan1U2cVSjnY-100" target="3DuDrnzEsan1U2cVSjnY-76">
          <mxGeometry relative="1" as="geometry">
            <mxPoint x="-260.0000000000182" y="995" as="sourcePoint" />
            <mxPoint x="-230" y="1160" as="targetPoint" />
          </mxGeometry>
        </mxCell>
        <mxCell id="3DuDrnzEsan1U2cVSjnY-104" value="" style="endArrow=none;html=1;rounded=0;entryX=0.5;entryY=0;entryDx=0;entryDy=0;exitX=0.698;exitY=0.962;exitDx=0;exitDy=0;exitPerimeter=0;" edge="1" parent="1" source="3DuDrnzEsan1U2cVSjnY-76" target="3DuDrnzEsan1U2cVSjnY-98">
          <mxGeometry relative="1" as="geometry">
            <mxPoint x="-250.0000000000182" y="1005" as="sourcePoint" />
            <mxPoint x="-190" y="1005" as="targetPoint" />
          </mxGeometry>
        </mxCell>
      </root>
    </mxGraphModel>
  </diagram>
</mxfile>
